# xmcd CD database file
#
# Track frame offsets:
#	150
#	22610
#	46479
#	65775
#	100281
#	122165
#	145273
#	171265
#	196487
#	212770
#
# Disc length: 3238 seconds
#
# Revision: 0
# Processed by: cddbd v1.5.2PL0 Copyright (c) Steve Scherf et al.
# Submitted via: CDex 1.70beta2
#
DISCID=920ca40a
DTITLE=Zazou, Hector - Penta Leslee Swanson - Sorrow and Solitude
DYEAR=1994
DGENRE=Jazz
TTITLE0=Ther Was A Thunder There Was A Rain
TTITLE1=Nothing
TTITLE2=Swan Song
TTITLE3=Rambling Man
TTITLE4=I'd Rather Go Blind
TTITLE5=C.C.Rider
TTITLE6=I Wanna Breakdown
TTITLE7=Homeless Blues
TTITLE8=A-Wandering
TTITLE9=Be My Man
EXTD=YEAR: 1994
EXTT0=
EXTT1=
EXTT2=
EXTT3=
EXTT4=
EXTT5=
EXTT6=
EXTT7=
EXTT8=
EXTT9=
PLAYORDER=
